<mxfile host="app.diagrams.net" modified="2021-05-31T17:40:46.659Z" agent="5.0 (Windows NT 10.0; Win64; x64) AppleWebKit/537.36 (KHTML, like Gecko) Chrome/91.0.4472.77 Safari/537.36" etag="submW7HC4GFhNOnC0N9F" version="14.7.3" type="github">
  <diagram id="C5RBs43oDa-KdzZeNtuy" name="Page-1">
    <mxGraphModel dx="3761" dy="762" grid="1" gridSize="10" guides="1" tooltips="1" connect="1" arrows="1" fold="1" page="1" pageScale="1" pageWidth="2339" pageHeight="3300" math="0" shadow="0">
      <root>
        <mxCell id="WIyWlLk6GJQsqaUBKTNV-0" />
        <mxCell id="WIyWlLk6GJQsqaUBKTNV-1" parent="WIyWlLk6GJQsqaUBKTNV-0" />
        <mxCell id="d1x9syZV4So58z00LpNJ-0" value="SET numbers TO []" style="ellipse;whiteSpace=wrap;html=1;" vertex="1" parent="WIyWlLk6GJQsqaUBKTNV-1">
          <mxGeometry x="50" y="20" width="120" height="40" as="geometry" />
        </mxCell>
        <mxCell id="d1x9syZV4So58z00LpNJ-1" value="" style="endArrow=classic;startArrow=classic;html=1;" edge="1" parent="WIyWlLk6GJQsqaUBKTNV-1">
          <mxGeometry width="50" height="50" relative="1" as="geometry">
            <mxPoint x="110" y="90" as="sourcePoint" />
            <mxPoint x="109.5" y="60" as="targetPoint" />
          </mxGeometry>
        </mxCell>
        <mxCell id="d1x9syZV4So58z00LpNJ-4" value="" style="edgeStyle=orthogonalEdgeStyle;rounded=0;orthogonalLoop=1;jettySize=auto;html=1;" edge="1" parent="WIyWlLk6GJQsqaUBKTNV-1" source="d1x9syZV4So58z00LpNJ-2" target="d1x9syZV4So58z00LpNJ-0">
          <mxGeometry relative="1" as="geometry" />
        </mxCell>
        <mxCell id="d1x9syZV4So58z00LpNJ-2" value="&lt;p class=&quot;MsoNormal&quot;&gt;&lt;span lang=&quot;EN-GB&quot;&gt;SEND “What&lt;br/&gt;is the maximum amount of numbers in the array” TO DISPLAY&lt;/span&gt;&lt;/p&gt;" style="rounded=1;whiteSpace=wrap;html=1;" vertex="1" parent="WIyWlLk6GJQsqaUBKTNV-1">
          <mxGeometry x="30" y="90" width="160" height="60" as="geometry" />
        </mxCell>
        <mxCell id="d1x9syZV4So58z00LpNJ-3" value="&lt;p class=&quot;MsoNormal&quot;&gt;&lt;span lang=&quot;EN-GB&quot;&gt;RECEIVE n&lt;br/&gt;FROM (INTEGER) KEYBOARD&lt;/span&gt;&lt;/p&gt;" style="shape=parallelogram;perimeter=parallelogramPerimeter;whiteSpace=wrap;html=1;fixedSize=1;" vertex="1" parent="WIyWlLk6GJQsqaUBKTNV-1">
          <mxGeometry x="35" y="180" width="150" height="60" as="geometry" />
        </mxCell>
        <mxCell id="d1x9syZV4So58z00LpNJ-6" value="" style="endArrow=classic;startArrow=classic;html=1;exitX=0.5;exitY=0;exitDx=0;exitDy=0;" edge="1" parent="WIyWlLk6GJQsqaUBKTNV-1" source="d1x9syZV4So58z00LpNJ-3">
          <mxGeometry width="50" height="50" relative="1" as="geometry">
            <mxPoint x="60" y="200" as="sourcePoint" />
            <mxPoint x="110" y="150" as="targetPoint" />
          </mxGeometry>
        </mxCell>
        <mxCell id="d1x9syZV4So58z00LpNJ-7" value="" style="endArrow=classic;startArrow=classic;html=1;" edge="1" parent="WIyWlLk6GJQsqaUBKTNV-1">
          <mxGeometry width="50" height="50" relative="1" as="geometry">
            <mxPoint x="110" y="270" as="sourcePoint" />
            <mxPoint x="110" y="240" as="targetPoint" />
          </mxGeometry>
        </mxCell>
        <mxCell id="d1x9syZV4So58z00LpNJ-8" value="i = 0" style="rounded=1;whiteSpace=wrap;html=1;" vertex="1" parent="WIyWlLk6GJQsqaUBKTNV-1">
          <mxGeometry x="70" y="270" width="80" height="30" as="geometry" />
        </mxCell>
        <mxCell id="d1x9syZV4So58z00LpNJ-9" style="edgeStyle=orthogonalEdgeStyle;rounded=0;orthogonalLoop=1;jettySize=auto;html=1;exitX=0.5;exitY=1;exitDx=0;exitDy=0;" edge="1" parent="WIyWlLk6GJQsqaUBKTNV-1" source="d1x9syZV4So58z00LpNJ-8" target="d1x9syZV4So58z00LpNJ-8">
          <mxGeometry relative="1" as="geometry" />
        </mxCell>
        <mxCell id="d1x9syZV4So58z00LpNJ-10" value="" style="endArrow=classic;startArrow=classic;html=1;" edge="1" parent="WIyWlLk6GJQsqaUBKTNV-1">
          <mxGeometry width="50" height="50" relative="1" as="geometry">
            <mxPoint x="110" y="360" as="sourcePoint" />
            <mxPoint x="110" y="300" as="targetPoint" />
          </mxGeometry>
        </mxCell>
        <mxCell id="d1x9syZV4So58z00LpNJ-61" value="Yes" style="edgeStyle=orthogonalEdgeStyle;rounded=0;orthogonalLoop=1;jettySize=auto;html=1;" edge="1" parent="WIyWlLk6GJQsqaUBKTNV-1" source="d1x9syZV4So58z00LpNJ-14" target="d1x9syZV4So58z00LpNJ-46">
          <mxGeometry relative="1" as="geometry" />
        </mxCell>
        <mxCell id="d1x9syZV4So58z00LpNJ-14" value="&lt;span style=&quot;color: rgb(0 , 0 , 0) ; font-family: &amp;#34;helvetica&amp;#34; ; font-size: 12px ; font-style: normal ; font-weight: 400 ; letter-spacing: normal ; text-align: center ; text-indent: 0px ; text-transform: none ; word-spacing: 0px ; background-color: rgb(248 , 249 , 250) ; display: inline ; float: none&quot;&gt;&lt;br&gt;&lt;br&gt;SEND “Enter first number” TO DISPLAY&lt;/span&gt;&lt;br class=&quot;Apple-interchange-newline&quot;&gt;&lt;br&gt;" style="rounded=1;whiteSpace=wrap;html=1;" vertex="1" parent="WIyWlLk6GJQsqaUBKTNV-1">
          <mxGeometry x="55" y="430" width="120" height="50" as="geometry" />
        </mxCell>
        <mxCell id="d1x9syZV4So58z00LpNJ-15" value="&lt;p class=&quot;MsoNormal&quot;&gt;&lt;span lang=&quot;EN-GB&quot;&gt;RECEIVE number&lt;br&gt;FROM (INTEGER) KEYBOARD&lt;/span&gt;&lt;/p&gt;" style="shape=parallelogram;perimeter=parallelogramPerimeter;whiteSpace=wrap;html=1;fixedSize=1;" vertex="1" parent="WIyWlLk6GJQsqaUBKTNV-1">
          <mxGeometry x="50" y="530" width="150" height="60" as="geometry" />
        </mxCell>
        <mxCell id="d1x9syZV4So58z00LpNJ-16" value="" style="endArrow=classic;startArrow=classic;html=1;entryX=0.5;entryY=1;entryDx=0;entryDy=0;" edge="1" parent="WIyWlLk6GJQsqaUBKTNV-1" target="d1x9syZV4So58z00LpNJ-14">
          <mxGeometry width="50" height="50" relative="1" as="geometry">
            <mxPoint x="114.5" y="530" as="sourcePoint" />
            <mxPoint x="114.5" y="500" as="targetPoint" />
          </mxGeometry>
        </mxCell>
        <mxCell id="d1x9syZV4So58z00LpNJ-17" value="SET numbers[i] to number" style="rounded=1;whiteSpace=wrap;html=1;" vertex="1" parent="WIyWlLk6GJQsqaUBKTNV-1">
          <mxGeometry x="55" y="630" width="120" height="60" as="geometry" />
        </mxCell>
        <mxCell id="d1x9syZV4So58z00LpNJ-18" value="" style="endArrow=classic;startArrow=classic;html=1;exitX=0.496;exitY=0;exitDx=0;exitDy=0;exitPerimeter=0;" edge="1" parent="WIyWlLk6GJQsqaUBKTNV-1" source="d1x9syZV4So58z00LpNJ-17">
          <mxGeometry width="50" height="50" relative="1" as="geometry">
            <mxPoint x="114.5" y="620" as="sourcePoint" />
            <mxPoint x="115" y="590" as="targetPoint" />
          </mxGeometry>
        </mxCell>
        <mxCell id="d1x9syZV4So58z00LpNJ-19" value="" style="endArrow=classic;startArrow=classic;html=1;" edge="1" parent="WIyWlLk6GJQsqaUBKTNV-1">
          <mxGeometry width="50" height="50" relative="1" as="geometry">
            <mxPoint x="114.5" y="720" as="sourcePoint" />
            <mxPoint x="114.5" y="690" as="targetPoint" />
          </mxGeometry>
        </mxCell>
        <mxCell id="d1x9syZV4So58z00LpNJ-20" value="i = i + 1" style="rounded=1;whiteSpace=wrap;html=1;" vertex="1" parent="WIyWlLk6GJQsqaUBKTNV-1">
          <mxGeometry x="75" y="720" width="80" height="40" as="geometry" />
        </mxCell>
        <mxCell id="d1x9syZV4So58z00LpNJ-21" value="" style="endArrow=classic;startArrow=classic;html=1;" edge="1" parent="WIyWlLk6GJQsqaUBKTNV-1">
          <mxGeometry width="50" height="50" relative="1" as="geometry">
            <mxPoint x="120" y="780" as="sourcePoint" />
            <mxPoint x="230" y="780" as="targetPoint" />
          </mxGeometry>
        </mxCell>
        <mxCell id="d1x9syZV4So58z00LpNJ-22" value="" style="endArrow=classic;startArrow=classic;html=1;" edge="1" parent="WIyWlLk6GJQsqaUBKTNV-1">
          <mxGeometry width="50" height="50" relative="1" as="geometry">
            <mxPoint x="230" y="780" as="sourcePoint" />
            <mxPoint x="230" y="320" as="targetPoint" />
          </mxGeometry>
        </mxCell>
        <mxCell id="d1x9syZV4So58z00LpNJ-23" value="" style="endArrow=classic;startArrow=classic;html=1;" edge="1" parent="WIyWlLk6GJQsqaUBKTNV-1">
          <mxGeometry width="50" height="50" relative="1" as="geometry">
            <mxPoint x="230" y="320" as="sourcePoint" />
            <mxPoint x="110" y="320" as="targetPoint" />
          </mxGeometry>
        </mxCell>
        <mxCell id="d1x9syZV4So58z00LpNJ-24" value="" style="endArrow=classic;startArrow=classic;html=1;" edge="1" parent="WIyWlLk6GJQsqaUBKTNV-1">
          <mxGeometry width="50" height="50" relative="1" as="geometry">
            <mxPoint x="-10" y="820" as="sourcePoint" />
            <mxPoint x="-10" y="380" as="targetPoint" />
          </mxGeometry>
        </mxCell>
        <mxCell id="d1x9syZV4So58z00LpNJ-25" value="No" style="endArrow=classic;startArrow=classic;html=1;" edge="1" parent="WIyWlLk6GJQsqaUBKTNV-1">
          <mxGeometry width="50" height="50" relative="1" as="geometry">
            <mxPoint x="70" y="380" as="sourcePoint" />
            <mxPoint x="-10" y="379.5" as="targetPoint" />
          </mxGeometry>
        </mxCell>
        <mxCell id="d1x9syZV4So58z00LpNJ-30" value="" style="endArrow=classic;startArrow=classic;html=1;" edge="1" parent="WIyWlLk6GJQsqaUBKTNV-1">
          <mxGeometry width="50" height="50" relative="1" as="geometry">
            <mxPoint x="114.5" y="800" as="sourcePoint" />
            <mxPoint x="114.5" y="760" as="targetPoint" />
          </mxGeometry>
        </mxCell>
        <mxCell id="d1x9syZV4So58z00LpNJ-32" value="" style="endArrow=classic;startArrow=classic;html=1;exitX=0;exitY=0.5;exitDx=0;exitDy=0;" edge="1" parent="WIyWlLk6GJQsqaUBKTNV-1" source="d1x9syZV4So58z00LpNJ-33">
          <mxGeometry width="50" height="50" relative="1" as="geometry">
            <mxPoint x="60" y="780" as="sourcePoint" />
            <mxPoint x="-10" y="820" as="targetPoint" />
          </mxGeometry>
        </mxCell>
        <mxCell id="d1x9syZV4So58z00LpNJ-33" value="&#xa;&#xa;&lt;span style=&quot;color: rgb(0, 0, 0); font-family: helvetica; font-size: 12px; font-style: normal; font-weight: 400; letter-spacing: normal; text-align: center; text-indent: 0px; text-transform: none; word-spacing: 0px; background-color: rgb(248, 249, 250); display: inline; float: none;&quot;&gt;SET max TO&lt;/span&gt;&lt;br style=&quot;color: rgb(0, 0, 0); font-family: helvetica; font-size: 12px; font-style: normal; font-weight: 400; letter-spacing: normal; text-align: center; text-indent: 0px; text-transform: none; word-spacing: 0px; background-color: rgb(248, 249, 250);&quot;&gt;&lt;span style=&quot;color: rgb(0, 0, 0); font-family: helvetica; font-size: 12px; font-style: normal; font-weight: 400; letter-spacing: normal; text-align: center; text-indent: 0px; text-transform: none; word-spacing: 0px; background-color: rgb(248, 249, 250); display: inline; float: none;&quot;&gt;0&lt;/span&gt;&#xa;&#xa;" style="rounded=1;whiteSpace=wrap;html=1;" vertex="1" parent="WIyWlLk6GJQsqaUBKTNV-1">
          <mxGeometry x="70" y="800" width="90" height="40" as="geometry" />
        </mxCell>
        <mxCell id="d1x9syZV4So58z00LpNJ-35" value="i = 0" style="rounded=1;whiteSpace=wrap;html=1;" vertex="1" parent="WIyWlLk6GJQsqaUBKTNV-1">
          <mxGeometry x="75" y="870" width="80" height="30" as="geometry" />
        </mxCell>
        <mxCell id="d1x9syZV4So58z00LpNJ-46" value="&#xa;&#xa;&lt;span style=&quot;color: rgb(0, 0, 0); font-family: helvetica; font-size: 12px; font-style: normal; font-weight: 400; letter-spacing: normal; text-align: center; text-indent: 0px; text-transform: none; word-spacing: 0px; background-color: rgb(248, 249, 250); display: inline; float: none;&quot;&gt;i &amp;lt; n ?&lt;/span&gt;&#xa;&#xa;" style="rhombus;whiteSpace=wrap;html=1;" vertex="1" parent="WIyWlLk6GJQsqaUBKTNV-1">
          <mxGeometry x="70" y="360" width="80" height="40" as="geometry" />
        </mxCell>
        <mxCell id="d1x9syZV4So58z00LpNJ-47" value="&#xa;&#xa;&lt;span style=&quot;color: rgb(0, 0, 0); font-family: helvetica; font-size: 12px; font-style: normal; font-weight: 400; letter-spacing: normal; text-align: center; text-indent: 0px; text-transform: none; word-spacing: 0px; background-color: rgb(248, 249, 250); display: inline; float: none;&quot;&gt;i &amp;lt; n ?&lt;/span&gt;&#xa;&#xa;" style="rhombus;whiteSpace=wrap;html=1;" vertex="1" parent="WIyWlLk6GJQsqaUBKTNV-1">
          <mxGeometry x="75" y="930" width="80" height="40" as="geometry" />
        </mxCell>
        <mxCell id="d1x9syZV4So58z00LpNJ-49" value="" style="endArrow=classic;startArrow=classic;html=1;" edge="1" parent="WIyWlLk6GJQsqaUBKTNV-1">
          <mxGeometry width="50" height="50" relative="1" as="geometry">
            <mxPoint x="114.5" y="930" as="sourcePoint" />
            <mxPoint x="114.5" y="900" as="targetPoint" />
          </mxGeometry>
        </mxCell>
        <mxCell id="d1x9syZV4So58z00LpNJ-53" value="" style="endArrow=classic;startArrow=classic;html=1;entryX=0.5;entryY=1;entryDx=0;entryDy=0;" edge="1" parent="WIyWlLk6GJQsqaUBKTNV-1" target="d1x9syZV4So58z00LpNJ-33">
          <mxGeometry width="50" height="50" relative="1" as="geometry">
            <mxPoint x="115" y="869" as="sourcePoint" />
            <mxPoint x="120" y="840" as="targetPoint" />
          </mxGeometry>
        </mxCell>
        <mxCell id="d1x9syZV4So58z00LpNJ-60" value="" style="endArrow=classic;startArrow=classic;html=1;" edge="1" parent="WIyWlLk6GJQsqaUBKTNV-1">
          <mxGeometry width="50" height="50" relative="1" as="geometry">
            <mxPoint x="110" y="430" as="sourcePoint" />
            <mxPoint x="109.5" y="400" as="targetPoint" />
          </mxGeometry>
        </mxCell>
        <mxCell id="d1x9syZV4So58z00LpNJ-62" value="Yes" style="endArrow=classic;startArrow=classic;html=1;" edge="1" parent="WIyWlLk6GJQsqaUBKTNV-1">
          <mxGeometry width="50" height="50" relative="1" as="geometry">
            <mxPoint x="114.5" y="1030" as="sourcePoint" />
            <mxPoint x="114.5" y="970" as="targetPoint" />
          </mxGeometry>
        </mxCell>
        <mxCell id="d1x9syZV4So58z00LpNJ-63" value="max &amp;lt; numbers[i] ?" style="rhombus;whiteSpace=wrap;html=1;" vertex="1" parent="WIyWlLk6GJQsqaUBKTNV-1">
          <mxGeometry x="50" y="1030" width="130" height="70" as="geometry" />
        </mxCell>
        <mxCell id="d1x9syZV4So58z00LpNJ-64" value="Yes" style="endArrow=classic;startArrow=classic;html=1;" edge="1" parent="WIyWlLk6GJQsqaUBKTNV-1">
          <mxGeometry width="50" height="50" relative="1" as="geometry">
            <mxPoint x="114.5" y="1160" as="sourcePoint" />
            <mxPoint x="114.5" y="1100" as="targetPoint" />
          </mxGeometry>
        </mxCell>
        <mxCell id="d1x9syZV4So58z00LpNJ-65" value="SET max TO numbers[i]" style="rounded=1;whiteSpace=wrap;html=1;" vertex="1" parent="WIyWlLk6GJQsqaUBKTNV-1">
          <mxGeometry x="55" y="1160" width="120" height="60" as="geometry" />
        </mxCell>
        <mxCell id="d1x9syZV4So58z00LpNJ-66" value="No" style="endArrow=classic;startArrow=classic;html=1;" edge="1" parent="WIyWlLk6GJQsqaUBKTNV-1">
          <mxGeometry width="50" height="50" relative="1" as="geometry">
            <mxPoint x="-15" y="949.5" as="sourcePoint" />
            <mxPoint x="75" y="949.5" as="targetPoint" />
          </mxGeometry>
        </mxCell>
        <mxCell id="d1x9syZV4So58z00LpNJ-67" value="" style="endArrow=classic;startArrow=classic;html=1;" edge="1" parent="WIyWlLk6GJQsqaUBKTNV-1">
          <mxGeometry width="50" height="50" relative="1" as="geometry">
            <mxPoint x="-10" y="1330" as="sourcePoint" />
            <mxPoint x="-10" y="950" as="targetPoint" />
          </mxGeometry>
        </mxCell>
        <mxCell id="d1x9syZV4So58z00LpNJ-68" value="i = i + 1" style="rounded=1;whiteSpace=wrap;html=1;" vertex="1" parent="WIyWlLk6GJQsqaUBKTNV-1">
          <mxGeometry x="75" y="1260" width="80" height="40" as="geometry" />
        </mxCell>
        <mxCell id="d1x9syZV4So58z00LpNJ-69" value="" style="endArrow=classic;startArrow=classic;html=1;exitX=0.5;exitY=0;exitDx=0;exitDy=0;" edge="1" parent="WIyWlLk6GJQsqaUBKTNV-1" source="d1x9syZV4So58z00LpNJ-68">
          <mxGeometry width="50" height="50" relative="1" as="geometry">
            <mxPoint x="115" y="1250" as="sourcePoint" />
            <mxPoint x="114.5" y="1220" as="targetPoint" />
          </mxGeometry>
        </mxCell>
        <mxCell id="d1x9syZV4So58z00LpNJ-70" value="" style="endArrow=classic;startArrow=classic;html=1;" edge="1" parent="WIyWlLk6GJQsqaUBKTNV-1">
          <mxGeometry width="50" height="50" relative="1" as="geometry">
            <mxPoint x="114.5" y="1350" as="sourcePoint" />
            <mxPoint x="114.5" y="1300" as="targetPoint" />
          </mxGeometry>
        </mxCell>
        <mxCell id="d1x9syZV4So58z00LpNJ-71" value="" style="endArrow=classic;startArrow=classic;html=1;" edge="1" parent="WIyWlLk6GJQsqaUBKTNV-1">
          <mxGeometry width="50" height="50" relative="1" as="geometry">
            <mxPoint x="115" y="1330" as="sourcePoint" />
            <mxPoint x="230" y="1330" as="targetPoint" />
          </mxGeometry>
        </mxCell>
        <mxCell id="d1x9syZV4So58z00LpNJ-72" value="" style="endArrow=classic;startArrow=classic;html=1;" edge="1" parent="WIyWlLk6GJQsqaUBKTNV-1">
          <mxGeometry width="50" height="50" relative="1" as="geometry">
            <mxPoint x="230" y="1330" as="sourcePoint" />
            <mxPoint x="230" y="920" as="targetPoint" />
          </mxGeometry>
        </mxCell>
        <mxCell id="d1x9syZV4So58z00LpNJ-73" value="" style="endArrow=classic;startArrow=classic;html=1;" edge="1" parent="WIyWlLk6GJQsqaUBKTNV-1">
          <mxGeometry width="50" height="50" relative="1" as="geometry">
            <mxPoint x="230" y="920" as="sourcePoint" />
            <mxPoint x="120" y="920" as="targetPoint" />
          </mxGeometry>
        </mxCell>
        <mxCell id="d1x9syZV4So58z00LpNJ-74" value="SEND max TO DISPLAY" style="ellipse;whiteSpace=wrap;html=1;" vertex="1" parent="WIyWlLk6GJQsqaUBKTNV-1">
          <mxGeometry x="55" y="1350" width="120" height="60" as="geometry" />
        </mxCell>
        <mxCell id="d1x9syZV4So58z00LpNJ-75" value="" style="endArrow=classic;startArrow=classic;html=1;" edge="1" parent="WIyWlLk6GJQsqaUBKTNV-1">
          <mxGeometry width="50" height="50" relative="1" as="geometry">
            <mxPoint x="-10" y="1330" as="sourcePoint" />
            <mxPoint x="110" y="1330" as="targetPoint" />
          </mxGeometry>
        </mxCell>
      </root>
    </mxGraphModel>
  </diagram>
</mxfile>
